<svg id="picto_photo_FFFFFF" xmlns="http://www.w3.org/2000/svg" xmlns:xlink="http://www.w3.org/1999/xlink" width="34.543" height="28.396" viewBox="0 0 34.543 28.396">
  <defs>
    <clipPath id="clip-path">
      <rect id="Rectangle_863" data-name="Rectangle 863" width="34.543" height="28.396" transform="translate(0 0)" fill="#fff"/>
    </clipPath>
  </defs>
  <g id="Groupe_5987" data-name="Groupe 5987" clip-path="url(#clip-path)">
    <path id="Tracé_10584" data-name="Tracé 10584" d="M33.872,7.759A5.9,5.9,0,0,0,28.8,2.852c-3.426-.383-6.874-.6-10.261-.647-.008-.042-.015-.085-.024-.128a2.569,2.569,0,0,0-2.1-1.886,40.215,40.215,0,0,0-7.85,0,2.568,2.568,0,0,0-2.084,1.9q-.073.351-.123.7l-.62.065A5.893,5.893,0,0,0,.671,7.76a42.649,42.649,0,0,0,0,15.074,5.9,5.9,0,0,0,5.07,4.906A101.6,101.6,0,0,0,17.27,28.4a101.736,101.736,0,0,0,11.535-.656,5.9,5.9,0,0,0,5.067-4.906h0a42.7,42.7,0,0,0,0-15.074M31.9,22.48a3.9,3.9,0,0,1-3.329,3.273,99.555,99.555,0,0,1-22.6,0,3.9,3.9,0,0,1-3.333-3.272,40.656,40.656,0,0,1,0-14.368A3.9,3.9,0,0,1,5.961,4.84L8.215,4.6l.051-.846a8.753,8.753,0,0,1,.168-1.24.644.644,0,0,1,.344-.335C10.015,2.06,11.261,2,12.505,2s2.472.059,3.694.179a.647.647,0,0,1,.357.305c.054.279.1.559.134.839l.11.869.876.005a103.328,103.328,0,0,1,10.894.642A3.906,3.906,0,0,1,31.9,8.112a40.656,40.656,0,0,1,0,14.368" fill="#fff"/>
    <path id="Tracé_10585" data-name="Tracé 10585" d="M16.5,8.8a7,7,0,1,0,7,7,7,7,0,0,0-7-7" fill="#fff"/>
    <path id="Tracé_10586" data-name="Tracé 10586" d="M26.5,7.3A1.5,1.5,0,1,0,28,8.8a1.5,1.5,0,0,0-1.5-1.5" fill="#fff"/>
  </g>
</svg>
